<svg width="64" height="64" viewBox="0 0 64 64" fill="none" xmlns="http://www.w3.org/2000/svg">
<mask id="mask0_5_68" style="mask-type:alpha" maskUnits="userSpaceOnUse" x="0" y="0" width="64" height="64">
<circle cx="32" cy="32" r="32" fill="#D9D9D9"/>
</mask>
<g mask="url(#mask0_5_68)">
<circle cx="32" cy="32" r="32" fill="#808080"/>
<circle cx="32" cy="32" r="2" fill="black"/>
<rect x="30" width="4" height="8" fill="black"/>
<rect x="56" y="30" width="8" height="4" fill="black"/>
<rect x="55.8025" y="16.6218" width="16" height="2" transform="rotate(-30 55.8025 16.6218)" fill="black"/>
<rect x="-6.9183" y="53.6502" width="16" height="2" transform="rotate(-30 -6.9183 53.6502)" fill="black"/>
<rect x="53.6762" y="70.9217" width="16" height="2" transform="rotate(-120 53.6762 70.9217)" fill="black"/>
<rect x="16.6478" y="8.20093" width="16" height="2" transform="rotate(-120 16.6478 8.20093)" fill="black"/>
<rect x="44.9061" y="6.81268" width="16" height="2" transform="rotate(-60 44.9061 6.81268)" fill="black"/>
<rect x="9.10247" y="70.2406" width="16" height="2" transform="rotate(-60 9.10247 70.2406)" fill="black"/>
<rect x="70.2146" y="54.9009" width="16" height="2" transform="rotate(-150 70.2146 54.9009)" fill="black"/>
<rect x="6.7867" y="19.0973" width="16" height="2" transform="rotate(-150 6.7867 19.0973)" fill="black"/>
<path d="M0 30H8V34H0V30Z" fill="black"/>
<rect x="30" y="56" width="4" height="8" fill="black"/>
</g>
</svg>
